<svg id="Layer_1" data-name="Layer 1" xmlns="http://www.w3.org/2000/svg" viewBox="0 0 512 512"><defs><style>.cls-1{fill:#bf1a8d;}.cls-2{fill:#2b3990;}.cls-3{fill:#27aae1;}</style></defs><path class="cls-1" d="M507.74,236.08c-15.75-6-30.55-11.46-45.19-17.32-27.81-11.11-55.08-23.74-83.37-33.42-44.37-15.18-89.12-13.43-132.49,4.37C221.94,199.87,198,212.12,174,224c-26.35,13-52.61,25.94-82.5,28.8a161,161,0,0,1-59.38-5.26C11,241.58.76,225.08,5.23,203.62Q19.13,136.86,64.69,86A247.94,247.94,0,0,1,129.82,33.7C173.12,9.66,219.7-1,269.2,1.94q91.49,5.51,158.9,67.82c35.63,33,59.57,73.12,72.07,119.9,3.6,13.46,5.12,27.47,7.54,41.24A39.58,39.58,0,0,1,507.74,236.08Z"/><path class="cls-2" d="M63.39,424.73c4.77,0,8.21-.06,11.64,0,33.7.68,66.18-5.69,96.56-19.86,32-14.92,63.27-31.33,94.49-47.8,33-17.39,67.05-23.82,103.2-12.57a542.54,542.54,0,0,1,51.24,18.28c29.53,12.58,35.47,45.71,14.58,70.28C413.65,458.27,386.77,474.94,357,488c-21.76,9.54-44.08,17.09-67.62,20.77-27.38,4.27-54.18.42-80.68-6.21-38.51-9.64-75.25-24-109.21-44.57-9.8-6-17.9-14.74-26.56-22.48C69.76,432.65,67.21,429.09,63.39,424.73Z"/><path class="cls-3" d="M5.85,311c21,6.49,41.26,10.21,62,10.82a229.82,229.82,0,0,0,58.5-5.73c33.16-7.62,63.1-22.87,92.9-38.54,21.09-11.09,42.41-21.64,65.33-28.62A114.53,114.53,0,0,1,356.4,250c21.54,7.36,42.72,15.93,63.6,25,25.84,11.25,51.65,22.38,79.36,28.23,4.79,1,5,3,3.47,6.88-4.94,12.08-18,18.77-30.27,14.17-13.86-5.19-27.31-11.47-40.88-17.41-28.28-12.39-57-23.38-87.93-27.15a182.55,182.55,0,0,0-94.47,13.11c-27.71,11.74-54.35,26-81.75,38.51-16,7.3-32.18,14.67-49,19.7-28.79,8.62-58,7.24-86.69-1.58-11.71-3.6-19.1-11.77-22.41-23.53C8.17,321.33,7.21,316.63,5.85,311Z"/></svg>